<?xml version="1.0" encoding="utf-8"?>
<!-- Generator: Adobe Illustrator 23.0.3, SVG Export Plug-In . SVG Version: 6.00 Build 0)  -->
<svg version="1.1" id="Layer_1" xmlns="http://www.w3.org/2000/svg" xmlns:xlink="http://www.w3.org/1999/xlink" x="0px" y="0px"
	 viewBox="0 0 605.24 218.36" style="enable-background:new 0 0 605.24 218.36;" xml:space="preserve">
<style type="text/css">
	.st0{fill:#00205B;}
	.st1{fill:url(#SVGID_1_);}
	.st2{fill:url(#SVGID_2_);}
</style>
<g>
	<g>
		<g>
			<path class="st0" d="M200.36,131.55h21.2c10.8,0,18.43,7.09,18.43,17.04c0,10.02-7.63,17.12-18.43,17.12h-11.34v17.66h-9.87
				V131.55z M210.23,157.76h9.79c5.86,0,9.87-3.78,9.87-9.18c0-5.32-4.01-9.18-9.87-9.18h-9.79V157.76z"/>
			<path class="st0" d="M258.97,131.55h9.48l21.2,51.82h-10.33l-4.78-12.34h-21.67l-4.78,12.34h-10.33L258.97,131.55z
				 M255.65,163.55h16.19l-8.1-20.74L255.65,163.55z"/>
			<path class="st0" d="M295.18,131.55h9.87v47.81v4h-9.87V131.55z"/>
			<path class="st0" d="M316.84,131.55h9.95l27.53,37.78v-37.78h9.48v51.82h-9.95l-27.53-37.78v37.78h-9.48V131.55z"/>
			<path class="st0" d="M388.48,139.63h-17.01v-8.08h43.89v8.08h-17.01v43.74h-9.87V139.63z"/>
		</g>
		<g>
			<path class="st0" d="M482.93,91.99c0,13.05-11.57,21.88-28.09,21.88c-8.73,0-18.1-1.79-28.19-5.89l4.31-14.31
				c8.21,3.16,15.99,5.15,22.3,5.15c6.73,0,10.73-2.52,10.73-6.84c0-11.78-36.93-3.05-36.93-29.88c0-12.73,11.47-21.46,27.77-21.46
				c8.21,0,16.52,1.68,25.56,5.05l-4.31,14.31c-7.15-2.84-13.89-4.31-19.78-4.31c-6.31,0-10.31,2.31-10.31,6.42
				C446,73.47,482.93,64.32,482.93,91.99z"/>
			<polygon class="st0" points="565.39,41.91 565.39,112.61 584.64,112.61 584.64,108.08 584.64,41.91 			"/>
			<path class="st0" d="M397.68,82.49c-13.33-18.56-29.86-38.09-32.41-40.58h-18.3v70.7h17.78V68.54
				c9.24,10.8,25.58,33.63,31.88,44.07h18.72v-70.7h-17.67V82.49z"/>
			<path class="st0" d="M313.56,41.91h-19.89c-12.63,26.38-22.8,55.17-26.69,69.07L236.8,74.74c9.3-9.08,23.19-25.17,29.04-32.83
				h-22.82c-4.84,5.99-20.66,22.61-24.15,25.71V41.91h-18.52v70.7h18.52V91.85c0.05-0.05,3.93-3.55,5.65-5.18l21.39,25.94h39.04
				c0.28-1.02,3.13-9.82,4.7-14.3h27.92c1.57,4.48,4.42,13.28,4.7,14.3h18.43C337.18,99.43,326.7,69.36,313.56,41.91z M294.71,84.41
				c0.38-1.08,6.23-15.9,8.9-21.85c2.67,5.95,8.52,20.77,8.9,21.85H294.71z"/>
			<path class="st0" d="M531.87,41.91h-19.89c-13.14,27.45-23.62,57.52-27.14,70.7h18.43c0.28-1.02,3.13-9.82,4.7-14.3h27.92
				c1.57,4.48,4.42,13.28,4.7,14.3h18.43C555.49,99.43,545.01,69.36,531.87,41.91z M513.02,84.41c0.38-1.08,6.23-15.9,8.9-21.85
				c2.67,5.95,8.52,20.77,8.9,21.85H513.02z"/>
		</g>
	</g>
	<g>
		<linearGradient id="SVGID_1_" gradientUnits="userSpaceOnUse" x1="18.5759" y1="131.2648" x2="177.7054" y2="131.2648">
			<stop  offset="0" style="stop-color:#8A2432"/>
			<stop  offset="0.0364" style="stop-color:#991F31"/>
			<stop  offset="0.1438" style="stop-color:#BF132E"/>
			<stop  offset="0.2" style="stop-color:#CE0E2D"/>
		</linearGradient>
		<path class="st1" d="M83.4,197.65H37.86c-4.07,0-8.82-3.96-12.74-7.8c-2.52-2.47-6.54-7.07-6.54-11.43c0-0.09,0.02-0.36,0.05-0.77
			c0.63-4.71,7.77-13.71,18.02-24.73c3.58,4.01,8.03,8.84,13.55,14.68C58.79,176.68,72.79,189.95,83.4,197.65z M40.97,64.88
			C22.14,83.81,18.58,90.89,18.58,95.2c0,4.51,3.19,10.36,8.59,17.25c6.38-7.87,15.98-17.47,27.68-28.97
			C48.2,75.25,43.76,69.03,40.97,64.88z M78.83,110.85c-9.27,9.02-18.91,18.34-27.7,27.14c5.36,5.22,11.12,10.69,17.09,16.36
			c15.09,14.34,43.15,37.58,51.94,43.27h57.54c-9.71-7.13-50.03-37.19-85.2-72.62C87.54,120.02,83,115.3,78.83,110.85z"/>
		<linearGradient id="SVGID_2_" gradientUnits="userSpaceOnUse" x1="18.5759" y1="102.9428" x2="177.7054" y2="102.9428">
			<stop  offset="0" style="stop-color:#00AAE7"/>
			<stop  offset="0.067" style="stop-color:#009EDE"/>
			<stop  offset="0.2576" style="stop-color:#0080C9"/>
			<stop  offset="0.4219" style="stop-color:#006EBD"/>
			<stop  offset="0.54" style="stop-color:#0068B8"/>
		</linearGradient>
		<path class="st2" d="M177.71,27.59c-10.04,7.09-49.66,34.85-88.01,72.64c-30.31,29.87-71.12,67.46-71.12,78.08
			c0,1.01,0-49.32,0-49.32c0-10.93,20.06-29.49,48.32-57.35c33.08-31.15,50.61-42.67,53.26-44.05H177.71z M83.4,27.57H37.86
			c-2.54,0-7.99,2.86-12.53,7.59c-3.01,3.14-6.75,7.79-6.75,11.63c0,1.23,0,36.11,0,48.4c0-4.8,4.4-13.01,29.35-37.17
			C56.9,49.33,72.79,35.27,83.4,27.57z"/>
	</g>
</g>
</svg>
